<svg width="171" height="43" viewBox="0 0 171 43" fill="none" xmlns="http://www.w3.org/2000/svg">
<path d="M0.391113 7.21582V7.1499H1.40625V7.21143C1.40625 7.57764 1.53662 7.85156 1.79736 8.0332C2.06104 8.21484 2.42871 8.30566 2.90039 8.30566C3.375 8.30566 3.73682 8.21484 3.98584 8.0332C4.23779 7.84863 4.36377 7.6084 4.36377 7.3125C4.36377 7.03418 4.25098 6.81592 4.02539 6.65771C3.7998 6.49951 3.31641 6.32812 2.5752 6.14355C1.83105 5.95898 1.30225 5.72754 0.98877 5.44922C0.675293 5.1709 0.518555 4.77393 0.518555 4.2583C0.518555 3.74268 0.725098 3.31641 1.13818 2.97949C1.5542 2.63965 2.12695 2.46973 2.85645 2.46973C3.58594 2.46973 4.16602 2.65283 4.59668 3.01904C5.02734 3.38232 5.24268 3.8291 5.24268 4.35938V4.42529H4.23633V4.36377C4.23633 4.0415 4.12061 3.78369 3.88916 3.59033C3.65771 3.39404 3.31348 3.2959 2.85645 3.2959C2.40234 3.2959 2.06689 3.37793 1.8501 3.54199C1.6333 3.70313 1.5249 3.91113 1.5249 4.16602C1.5249 4.44434 1.63184 4.6582 1.8457 4.80762C2.0625 4.95703 2.50342 5.11377 3.16846 5.27783C3.91553 5.46533 4.46924 5.70996 4.82959 6.01172C5.18994 6.31055 5.37012 6.73389 5.37012 7.28174C5.37012 7.82666 5.14746 8.27197 4.70215 8.61768C4.25977 8.96045 3.65918 9.13184 2.90039 9.13184C2.14453 9.13184 1.53662 8.96045 1.07666 8.61768C0.619629 8.2749 0.391113 7.80762 0.391113 7.21582ZM6.36768 10.8281V4.22314H7.26855L7.30371 4.82959H7.32568C7.44873 4.63623 7.64062 4.47217 7.90137 4.3374C8.16211 4.20264 8.46387 4.13525 8.80664 4.13525C9.43945 4.13525 9.94629 4.3623 10.3271 4.81641C10.708 5.26758 10.8984 5.8418 10.8984 6.53906V6.67969C10.8984 7.37988 10.708 7.95703 10.3271 8.41113C9.94922 8.8623 9.44385 9.08789 8.81104 9.08789C8.46826 9.08789 8.17383 9.03076 7.92773 8.9165C7.68164 8.80225 7.48682 8.64697 7.34326 8.45068V10.8281H6.36768ZM7.34326 7.52344C7.43701 7.72852 7.59082 7.91162 7.80469 8.07275C8.01855 8.23096 8.27783 8.31006 8.58252 8.31006C9.03369 8.31006 9.36475 8.15479 9.57568 7.84424C9.78662 7.53369 9.89209 7.14697 9.89209 6.68408V6.53467C9.89209 6.07764 9.78662 5.69385 9.57568 5.3833C9.36475 5.07275 9.03369 4.91748 8.58252 4.91748C8.27783 4.91748 8.01855 4.99805 7.80469 5.15918C7.59375 5.31738 7.43994 5.49756 7.34326 5.69971V7.52344ZM11.6367 6.67969V6.53906C11.6367 5.81836 11.8535 5.23096 12.2871 4.77686C12.7236 4.31982 13.3037 4.09131 14.0273 4.09131C14.7539 4.09131 15.334 4.31982 15.7676 4.77686C16.2041 5.23096 16.4224 5.81836 16.4224 6.53906V6.67969C16.4224 7.40332 16.2041 7.99365 15.7676 8.45068C15.334 8.90479 14.7554 9.13184 14.0317 9.13184C13.3052 9.13184 12.7236 8.90479 12.2871 8.45068C11.8535 7.99365 11.6367 7.40332 11.6367 6.67969ZM12.6387 6.53467V6.68408C12.6387 7.15576 12.7559 7.55273 12.9902 7.875C13.2246 8.19434 13.5703 8.354 14.0273 8.354C14.4873 8.354 14.8345 8.19434 15.0688 7.875C15.3032 7.55273 15.4204 7.15576 15.4204 6.68408V6.53467C15.4204 6.06592 15.3032 5.67188 15.0688 5.35254C14.8345 5.0332 14.4873 4.87354 14.0273 4.87354C13.5703 4.87354 13.2246 5.0332 12.9902 5.35254C12.7559 5.67188 12.6387 6.06592 12.6387 6.53467ZM17.4419 9V4.22314H18.3428L18.3779 4.83398H18.3999C18.5786 4.61133 18.7969 4.43994 19.0547 4.31982C19.3125 4.19678 19.5981 4.13525 19.9116 4.13525C20.4214 4.13525 20.8271 4.27881 21.1289 4.56592C21.4336 4.8501 21.5859 5.33057 21.5859 6.00732V9H20.606V5.99414C20.606 5.61328 20.5195 5.34082 20.3467 5.17676C20.1738 5.0127 19.9307 4.93066 19.6172 4.93066C19.3477 4.93066 19.1104 5.00244 18.9053 5.146C18.7002 5.28955 18.5376 5.47412 18.4175 5.69971V9H17.4419ZM22.5396 7.57178H23.5151V7.60693C23.5151 7.86475 23.6162 8.06104 23.8184 8.1958C24.0234 8.32764 24.293 8.39355 24.627 8.39355C24.9639 8.39355 25.2246 8.33203 25.4092 8.20898C25.5967 8.08301 25.6904 7.91895 25.6904 7.7168C25.6904 7.51465 25.6143 7.36084 25.4619 7.25537C25.3125 7.14697 24.958 7.03857 24.3984 6.93018C23.8359 6.82178 23.4097 6.65186 23.1196 6.42041C22.8325 6.18896 22.689 5.87695 22.689 5.48438C22.689 5.08301 22.8618 4.75049 23.2075 4.48682C23.5532 4.22314 24.0205 4.09131 24.6094 4.09131C25.2041 4.09131 25.6772 4.22607 26.0288 4.49561C26.3833 4.76514 26.5605 5.12109 26.5605 5.56348V5.59424H25.5894V5.56348C25.5894 5.33496 25.5088 5.15479 25.3477 5.02295C25.1895 4.89111 24.9434 4.8252 24.6094 4.8252C24.2754 4.8252 24.0337 4.88379 23.8843 5.00098C23.7378 5.11523 23.6646 5.25586 23.6646 5.42285C23.6646 5.59863 23.7407 5.73926 23.8931 5.84473C24.0483 5.94727 24.4116 6.0542 24.9829 6.16553C25.5425 6.27393 25.9629 6.44531 26.2441 6.67969C26.5283 6.91406 26.6704 7.24072 26.6704 7.65967C26.6704 8.09033 26.499 8.44336 26.1562 8.71875C25.8164 8.99414 25.3066 9.13184 24.627 9.13184C23.9473 9.13184 23.4287 8.99268 23.0713 8.71436C22.7168 8.43604 22.5396 8.06689 22.5396 7.60693V7.57178ZM27.3955 6.67969V6.53906C27.3955 5.81836 27.6123 5.23096 28.0459 4.77686C28.4824 4.31982 29.0625 4.09131 29.7861 4.09131C30.5127 4.09131 31.0928 4.31982 31.5264 4.77686C31.9629 5.23096 32.1812 5.81836 32.1812 6.53906V6.67969C32.1812 7.40332 31.9629 7.99365 31.5264 8.45068C31.0928 8.90479 30.5142 9.13184 29.7905 9.13184C29.064 9.13184 28.4824 8.90479 28.0459 8.45068C27.6123 7.99365 27.3955 7.40332 27.3955 6.67969ZM28.3975 6.53467V6.68408C28.3975 7.15576 28.5146 7.55273 28.749 7.875C28.9834 8.19434 29.3291 8.354 29.7861 8.354C30.2461 8.354 30.5933 8.19434 30.8276 7.875C31.062 7.55273 31.1792 7.15576 31.1792 6.68408V6.53467C31.1792 6.06592 31.062 5.67188 30.8276 5.35254C30.5933 5.0332 30.2461 4.87354 29.7861 4.87354C29.3291 4.87354 28.9834 5.0332 28.749 5.35254C28.5146 5.67188 28.3975 6.06592 28.3975 6.53467ZM33.2007 9V4.22314H34.1016L34.1367 4.8208H34.1587C34.2817 4.62744 34.4414 4.45752 34.6377 4.31104C34.8369 4.16455 35.0742 4.09131 35.3496 4.09131C35.4141 4.09131 35.4814 4.09863 35.5518 4.11328C35.625 4.12793 35.6763 4.14258 35.7056 4.15723V5.04492C35.647 5.0332 35.584 5.02441 35.5166 5.01855C35.4521 5.0127 35.3804 5.00977 35.3013 5.00977C35.0288 5.00977 34.7959 5.07861 34.6025 5.21631C34.4121 5.354 34.27 5.52539 34.1763 5.73047V9H33.2007ZM36.123 6.67969V6.53906C36.123 5.81836 36.3325 5.23096 36.7515 4.77686C37.1733 4.31982 37.7285 4.09131 38.417 4.09131C39.1084 4.09131 39.6416 4.30518 40.0166 4.73291C40.3916 5.15771 40.5791 5.7334 40.5791 6.45996V6.85547H36.7603V6.12158H39.5903V6.09961C39.5903 5.75977 39.4995 5.4668 39.3179 5.2207C39.1362 4.97461 38.8345 4.85156 38.4126 4.85156C37.9907 4.85156 37.6685 5.01416 37.4458 5.33936C37.2231 5.66162 37.1118 6.06006 37.1118 6.53467V6.68408C37.1118 7.15869 37.229 7.55859 37.4634 7.88379C37.6978 8.20605 38.0596 8.36719 38.5488 8.36719C38.8564 8.36719 39.1201 8.30273 39.3398 8.17383C39.5596 8.04492 39.7383 7.89258 39.876 7.7168L40.5132 8.22656C40.3608 8.45508 40.1147 8.66309 39.7749 8.85059C39.438 9.03809 39.0293 9.13184 38.5488 9.13184C37.7695 9.13184 37.1704 8.90479 36.7515 8.45068C36.3325 7.99365 36.123 7.40332 36.123 6.67969ZM41.2734 6.67969V6.53906C41.2734 5.84473 41.4639 5.27051 41.8447 4.81641C42.2256 4.3623 42.7324 4.13525 43.3652 4.13525C43.7109 4.13525 44.0054 4.19385 44.2485 4.31104C44.4917 4.42529 44.6851 4.5791 44.8286 4.77246V2.25H45.8042V9H44.9033L44.8682 8.39355H44.8462C44.7231 8.58691 44.5312 8.75098 44.2705 8.88574C44.0127 9.02051 43.7109 9.08789 43.3652 9.08789C42.7295 9.08789 42.2212 8.86084 41.8403 8.40674C41.4624 7.95264 41.2734 7.37695 41.2734 6.67969ZM42.2754 6.68408C42.2754 7.14404 42.3823 7.53076 42.5962 7.84424C42.8101 8.15479 43.1426 8.31006 43.5938 8.31006C43.8955 8.31006 44.1519 8.23096 44.3628 8.07275C44.5767 7.91162 44.7319 7.72852 44.8286 7.52344V5.69971C44.7319 5.49463 44.5781 5.31299 44.3672 5.15479C44.1562 4.99658 43.8984 4.91748 43.5938 4.91748C43.1426 4.91748 42.8101 5.07275 42.5962 5.3833C42.3823 5.69385 42.2754 6.07764 42.2754 6.53467V6.68408ZM49.2935 9V2.25H50.269V4.77246C50.4126 4.5791 50.6074 4.42529 50.8535 4.31104C51.0996 4.19385 51.394 4.13525 51.7368 4.13525C52.3696 4.13525 52.875 4.3623 53.2529 4.81641C53.6338 5.27051 53.8242 5.84473 53.8242 6.53906V6.67969C53.8242 7.37695 53.6338 7.95264 53.2529 8.40674C52.875 8.86084 52.3696 9.08789 51.7368 9.08789C51.394 9.08789 51.0908 9.02051 50.8271 8.88574C50.5664 8.75098 50.3745 8.58691 50.2515 8.39355H50.2295L50.1943 9H49.2935ZM50.269 7.51904C50.3628 7.72412 50.5166 7.90723 50.7305 8.06836C50.9443 8.22949 51.2036 8.31006 51.5083 8.31006C51.9595 8.31006 52.2905 8.15479 52.5015 7.84424C52.7124 7.53076 52.8179 7.14404 52.8179 6.68408V6.53467C52.8179 6.07764 52.7124 5.69385 52.5015 5.3833C52.2905 5.07275 51.9595 4.91748 51.5083 4.91748C51.2036 4.91748 50.9443 4.99805 50.7305 5.15918C50.5166 5.31738 50.3628 5.49902 50.269 5.7041V7.51904ZM54.4395 10.8281V10.0371C54.5186 10.0605 54.6094 10.0811 54.7119 10.0986C54.8174 10.1162 54.917 10.125 55.0107 10.125C55.2305 10.125 55.4136 10.062 55.5601 9.93604C55.7065 9.81006 55.8691 9.48633 56.0479 8.96484L56.0127 8.96045L54.1626 4.22314H55.1382L56.2676 7.25537C56.3115 7.37256 56.3525 7.48975 56.3906 7.60693C56.4287 7.72412 56.458 7.83984 56.4785 7.9541H56.5049C56.5254 7.83984 56.5547 7.72559 56.5928 7.61133C56.6309 7.49414 56.6719 7.37549 56.7158 7.25537L57.7749 4.22314H58.7065L56.6719 9.61084C56.5137 10.0239 56.3027 10.3447 56.0391 10.5732C55.7754 10.8047 55.4502 10.9204 55.0635 10.9204C54.9375 10.9204 54.8232 10.9116 54.7207 10.894C54.6182 10.8794 54.5244 10.8574 54.4395 10.8281Z" fill="#4E5054"/>
<g clip-path="url(#clip0_660_830)">
<path d="M20.0268 23.1053L21.0471 23.1349L23.7873 20.352L23.933 19.1678C21.7467 17.2138 18.8899 16 15.7707 16C10.0863 16 5.3055 19.9079 3.90625 25.2368C4.19776 25.0296 4.83908 25.1776 4.83908 25.1776L10.3195 24.2599C10.3195 24.2599 10.611 23.7862 10.7567 23.8158C12.0102 22.4243 13.8176 21.5658 15.7999 21.5658C17.3449 21.5658 18.8316 22.1579 20.0268 23.1053Z" fill="#E64217"/>
<path d="M27.6061 25.2368C26.9648 22.8684 25.653 20.7664 23.9039 19.1677L20.0268 23.1052C21.5718 24.3783 22.563 26.3322 22.563 28.4934V29.1743C24.4578 29.1743 25.9736 30.7434 25.9736 32.6381C25.9736 34.5329 24.4286 36.1019 22.563 36.1019H15.7416L15.042 36.8125V40.9868L15.7416 41.6677H22.563C27.4603 41.6677 31.454 37.6118 31.454 32.6381C31.454 29.5888 29.9382 26.8651 27.6061 25.2368Z" fill="#008FD3"/>
<path d="M8.89114 41.6974H15.7125V36.1316H8.89114C8.39557 36.1316 7.9 36.0131 7.49189 35.8059L6.50075 36.102L3.76055 38.8849L3.52734 39.8322C5.01405 41.0164 6.87971 41.6974 8.89114 41.6974Z" fill="#46AC44"/>
<path d="M8.89107 23.6382C3.99369 23.6382 0 27.6941 0 32.6678C0 35.5987 1.3701 38.204 3.52728 39.8619L7.49182 35.8356C6.29663 35.3027 5.4804 34.0888 5.4804 32.6678C5.4804 30.7434 7.0254 29.204 8.89107 29.204C10.2612 29.204 11.4564 30.0329 12.0102 31.2467L15.9748 27.2204C14.3423 25.0592 11.777 23.6382 8.89107 23.6382Z" fill="#FBBF00"/>
<path d="M125.408 37.8783C123.134 37.8783 121.21 37.1086 119.665 35.5395C118.149 33.9704 117.391 32.0165 117.391 29.7073C117.391 27.398 118.149 25.4441 119.665 23.875C121.181 22.3059 123.105 21.5066 125.408 21.5066C127.711 21.5066 129.635 22.3651 131.092 24.0822L129.664 25.4737C128.556 24.1119 127.128 23.4309 125.408 23.4309C123.688 23.4309 122.259 24.023 121.122 25.1776C119.986 26.3323 119.432 27.8421 119.432 29.6776C119.432 31.5132 119.986 33.023 121.122 34.1776C122.259 35.3323 123.717 35.9244 125.408 35.9244C127.215 35.9244 128.76 35.1546 130.101 33.6151L131.559 35.0362C130.83 35.9244 129.926 36.6053 128.877 37.1086C127.769 37.6415 126.632 37.8783 125.408 37.8783Z" fill="#77797A"/>
<path d="M135.144 21.8618H133.162V37.5526H135.144V21.8618Z" fill="#77797A"/>
<path d="M136.835 32.1645C136.835 30.5066 137.36 29.1448 138.38 28.079C139.429 26.9836 140.712 26.4507 142.286 26.4507C143.86 26.4507 145.143 26.9836 146.163 28.079C147.213 29.1448 147.708 30.5362 147.708 32.1645C147.708 33.7928 147.184 35.1842 146.163 36.25C145.143 37.3454 143.86 37.8783 142.286 37.8783C140.712 37.8783 139.429 37.3454 138.38 36.25C137.36 35.1842 136.835 33.8224 136.835 32.1645ZM138.817 32.1645C138.817 33.3191 139.138 34.2665 139.808 34.977C140.479 35.6875 141.295 36.0428 142.257 36.0428C143.219 36.0428 144.064 35.6875 144.706 34.977C145.376 34.2665 145.697 33.3191 145.697 32.1645C145.697 31.0099 145.376 30.0921 144.706 29.3816C144.035 28.6415 143.219 28.2862 142.257 28.2862C141.295 28.2862 140.479 28.6415 139.808 29.3816C139.167 30.1217 138.817 31.0395 138.817 32.1645Z" fill="#77797A"/>
<path d="M158.669 37.5526H156.774V36.0723H156.687C156.395 36.6052 155.929 37.0493 155.287 37.3749C154.675 37.7302 154.005 37.9078 153.334 37.9078C152.052 37.9078 151.031 37.523 150.361 36.7828C149.661 36.0427 149.312 34.9473 149.312 33.5855V26.8354H151.294V33.4374C151.323 35.1841 152.197 36.0723 153.917 36.0723C154.704 36.0723 155.375 35.7466 155.9 35.0953C156.424 34.444 156.687 33.6743 156.687 32.7565V26.8354H158.669V37.5526Z" fill="#77797A"/>
<path d="M165.403 37.8783C164.033 37.8783 162.838 37.3158 161.847 36.2204C160.856 35.0954 160.389 33.7335 160.389 32.1644C160.389 30.5954 160.885 29.2335 161.847 28.1085C162.838 26.9835 164.033 26.4506 165.403 26.4506C166.19 26.4506 166.89 26.6283 167.531 26.9539C168.172 27.2796 168.668 27.7237 169.018 28.2862H169.105L169.018 26.8059V21.8618H171V37.5526H169.105V36.0723H169.018C168.668 36.6348 168.172 37.0789 167.531 37.4046C166.89 37.7302 166.161 37.8783 165.403 37.8783ZM165.724 36.0427C166.715 36.0427 167.502 35.6875 168.114 34.9769C168.756 34.2664 169.076 33.3191 169.076 32.1644C169.076 31.0098 168.756 30.1217 168.114 29.3816C167.473 28.6414 166.686 28.2862 165.724 28.2862C164.762 28.2862 163.975 28.6414 163.333 29.3816C162.692 30.1217 162.371 31.0394 162.371 32.1644C162.371 33.2894 162.692 34.2368 163.333 34.9473C163.975 35.6875 164.762 36.0427 165.724 36.0427Z" fill="#77797A"/>
<path d="M51.3058 37.8783C46.4958 37.8783 42.4438 33.9112 42.4438 29.0263C42.4438 24.1414 46.4958 20.1743 51.3058 20.1743C53.9585 20.1743 55.8533 21.2401 57.2817 22.6316L55.591 24.3487C54.5707 23.3717 53.2006 22.6316 51.3058 22.6316C47.8076 22.6316 45.0383 25.5033 45.0383 29.0855C45.0383 32.6677 47.7785 35.5394 51.3058 35.5394C53.5795 35.5394 54.8913 34.6217 55.7076 33.7631C56.378 33.0822 56.8445 32.0756 56.9902 30.7138H51.2183V28.2862H59.2931C59.3806 28.7302 59.4098 29.2335 59.4098 29.796C59.4098 31.6019 58.9142 33.8519 57.34 35.4506C55.8533 37.0197 53.9002 37.8783 51.3058 37.8783Z" fill="#77797A"/>
<path d="M71.5365 32.1645C71.5365 35.4507 69.0003 37.8783 65.9103 37.8783C62.8203 37.8783 60.2842 35.4507 60.2842 32.1645C60.2842 28.8783 62.8203 26.4507 65.9103 26.4507C69.0295 26.4803 71.5365 28.8783 71.5365 32.1645ZM69.0878 32.1645C69.0878 30.1217 67.6302 28.7007 65.9103 28.7007C64.1904 28.7007 62.7329 30.0921 62.7329 32.1645C62.7329 34.2369 64.1904 35.6283 65.9103 35.6283C67.6302 35.6283 69.0878 34.2073 69.0878 32.1645Z" fill="#77797A"/>
<path d="M83.8094 32.1645C83.8094 35.4507 81.2733 37.8783 78.1833 37.8783C75.0933 37.8783 72.5571 35.4507 72.5571 32.1645C72.5571 28.8783 75.0933 26.4507 78.1833 26.4507C81.2733 26.4803 83.8094 28.8783 83.8094 32.1645ZM81.3316 32.1645C81.3316 30.1217 79.874 28.7007 78.1541 28.7007C76.4342 28.7007 74.9767 30.0921 74.9767 32.1645C74.9767 34.2369 76.4342 35.6283 78.1541 35.6283C79.874 35.6283 81.3316 34.2073 81.3316 32.1645Z" fill="#77797A"/>
<path d="M95.5277 26.8059V37.0494C95.5277 41.2533 93.079 43 90.1931 43C87.482 43 85.8204 41.1349 85.2083 39.625L87.3654 38.7073C87.7444 39.625 88.6772 40.75 90.1931 40.75C92.0296 40.75 93.1957 39.5954 93.1957 37.4046V36.5757H93.1082C92.5543 37.2566 91.5049 37.8783 90.1639 37.8783C87.3654 37.8783 84.771 35.3915 84.771 32.1941C84.771 28.9967 87.3363 26.4507 90.1639 26.4507C91.5049 26.4507 92.5543 27.0428 93.1082 27.7237H93.1957V26.8059H95.5277ZM93.3414 32.1941C93.3414 30.1809 92.0296 28.7007 90.3388 28.7007C88.6481 28.7007 87.2197 30.1809 87.2197 32.1941C87.2197 34.2073 88.6481 35.6283 90.3388 35.6283C92.0296 35.6283 93.3414 34.1777 93.3414 32.1941Z" fill="#77797A"/>
<path d="M99.784 20.7664H97.3062V37.5525H99.784V20.7664Z" fill="#77797A"/>
<path d="M109.346 34.0592L111.269 35.3619C110.657 36.2796 109.171 37.8783 106.576 37.8783C103.399 37.8783 101.008 35.3619 101.008 32.1645C101.008 28.7599 103.399 26.4507 106.314 26.4507C109.229 26.4507 110.657 28.8191 111.124 30.0921L111.386 30.7434L103.865 33.9112C104.448 35.0658 105.323 35.6283 106.576 35.6283C107.83 35.6283 108.704 35.0066 109.346 34.0592ZM103.428 32.0165L108.442 29.8849C108.179 29.1744 107.334 28.6711 106.343 28.6711C105.119 28.6711 103.37 29.7961 103.428 32.0165Z" fill="#77797A"/>
</g>
<defs>
<clipPath id="clip0_660_830">
<rect width="171" height="27" fill="white" transform="translate(0 16)"/>
</clipPath>
</defs>
</svg>
