<svg width="101" height="42" viewBox="0 0 101 42" fill="none" xmlns="http://www.w3.org/2000/svg">
<path d="M33.4868 39.6706C32.3006 40.8363 30.7494 41.3743 29.0158 41.3743C24.636 41.3743 22.811 38.4152 22.811 35.456C22.811 32.4072 24.8184 29.3584 29.0158 29.3584C30.5669 29.3584 32.1181 29.9861 33.3043 31.1518L31.8444 32.5866C31.1144 31.8692 30.0195 31.5105 29.0158 31.5105C26.1871 31.5105 24.9097 33.573 25.0009 35.5457C25.0009 37.4288 26.1871 39.4912 29.0158 39.4912C30.0195 39.4912 31.2056 39.0429 31.9356 38.3255L33.4868 39.6706Z" fill="#045F87"/>
<path d="M44.8928 29.5383V36.174C44.8928 39.5815 42.7942 41.3749 39.7831 41.3749C36.9544 41.3749 34.582 39.6711 34.582 36.174V29.5383H36.7719V36.174C36.7719 38.2364 37.9581 39.4021 39.7831 39.4021C41.608 39.4021 42.6117 38.2364 42.6117 36.174V29.5383H44.8928Z" fill="#045F87"/>
<path d="M57.485 41.1059H54.8389L51.3715 37.25H49.2729V41.1059H47.083V29.5383C48.9079 29.5383 50.8241 29.5383 52.649 29.5383C55.3864 29.5383 56.8463 31.3317 56.8463 33.3942C56.8463 35.0082 56.1163 36.6223 53.8352 37.0707L57.3938 41.0162V41.1059H57.485ZM49.2729 31.6007V35.2773H52.649C54.0177 35.2773 54.6564 34.3805 54.6564 33.3942C54.6564 32.4078 54.0177 31.5111 52.649 31.5111H49.2729V31.6007Z" fill="#045F87"/>
<path d="M66.7923 38.9538H60.6788L59.6751 41.1059H57.3027L62.5038 29.5383H64.9674L70.2597 41.1059H67.796L66.7923 38.9538ZM63.6899 31.9595L61.5 36.8914H65.8799L63.6899 31.9595Z" fill="#045F87"/>
<path d="M72.3582 31.5111H68.6172V29.5383C71.9933 29.5383 74.9131 29.5383 78.2892 29.5383V31.5111H74.5482V41.1059H72.3582V31.5111Z" fill="#045F87"/>
<path d="M88.4172 41.1059H79.5664C79.5664 37.25 79.5664 33.3942 79.5664 29.5383H88.4172V31.6904H81.8476V34.3806H88.2348V36.443H81.8476V39.0434H88.4172V41.1059Z" fill="#045F87"/>
<path d="M100.462 35.1876C100.553 38.1467 98.7279 41.1059 94.6218 41.1059C93.1619 41.1059 91.4282 41.1059 89.9683 41.1059V29.5383C91.4282 29.5383 93.1619 29.5383 94.6218 29.5383C98.6366 29.5383 100.37 32.4078 100.462 35.1876ZM92.1582 39.0434H94.6218C97.2679 39.0434 98.3629 37.1603 98.2716 35.2773C98.1804 33.4838 97.1767 31.6904 94.6218 31.6904H92.1582V39.0434Z" fill="#045F87"/>
<path fill-rule="evenodd" clip-rule="evenodd" d="M0 27.4752V24.7851C0 24.5161 0.182486 24.2471 0.364978 24.2471H2.28115C2.46364 24.2471 2.64612 24.4264 2.64612 24.7851V27.4752C2.64612 27.7442 2.46364 28.0132 2.28115 28.0132H0.364978C0.182486 28.0132 0 27.7442 0 27.4752Z" fill="#27AAE1"/>
<path fill-rule="evenodd" clip-rule="evenodd" d="M0 32.0484V29.3583C0 29.0893 0.182486 28.8203 0.364978 28.8203H2.28115C2.46364 28.8203 2.64612 28.9996 2.64612 29.3583V32.0484C2.64612 32.3175 2.46364 32.5865 2.28115 32.5865H0.364978C0.182486 32.5865 0 32.3175 0 32.0484Z" fill="#27AAE1"/>
<path fill-rule="evenodd" clip-rule="evenodd" d="M3.6499 27.4752V24.7851C3.6499 24.5161 3.83239 24.2471 4.01488 24.2471H5.93105C6.11354 24.2471 6.29603 24.4264 6.29603 24.7851V27.4752C6.29603 27.7442 6.11354 28.0132 5.93105 28.0132H4.01488C3.83239 28.0132 3.6499 27.7442 3.6499 27.4752Z" fill="#045F87"/>
<path fill-rule="evenodd" clip-rule="evenodd" d="M7.20898 36.6217V33.9316C7.20898 33.6626 7.39148 33.3936 7.57398 33.3936H9.49013C9.67262 33.3936 9.85512 33.5729 9.85512 33.9316V36.6217C9.85512 36.8907 9.67262 37.1597 9.49013 37.1597H7.57398C7.39148 37.1597 7.20898 36.8907 7.20898 36.6217Z" fill="#27AAE1"/>
<path fill-rule="evenodd" clip-rule="evenodd" d="M7.20898 32.0484V29.3583C7.20898 29.0893 7.39148 28.8203 7.57398 28.8203H9.49013C9.67262 28.8203 9.85512 28.9996 9.85512 29.3583V32.0484C9.85512 32.3175 9.67262 32.5865 9.49013 32.5865H7.57398C7.39148 32.5865 7.20898 32.3175 7.20898 32.0484Z" fill="#045F87"/>
<path fill-rule="evenodd" clip-rule="evenodd" d="M7.20898 27.4752V24.7851C7.20898 24.5161 7.39148 24.2471 7.57398 24.2471H9.49013C9.67262 24.2471 9.85512 24.4264 9.85512 24.7851V27.4752C9.85512 27.7442 9.67262 28.0132 9.49013 28.0132H7.57398C7.39148 28.0132 7.20898 27.7442 7.20898 27.4752Z" fill="#27AAE1"/>
<path fill-rule="evenodd" clip-rule="evenodd" d="M10.7671 36.6217V33.9316C10.7671 33.6626 10.9496 33.3936 11.1321 33.3936H13.0482C13.2307 33.3936 13.4132 33.5729 13.4132 33.9316V36.6217C13.4132 36.8907 13.2307 37.1597 13.0482 37.1597H11.1321C10.9496 37.1597 10.7671 36.8907 10.7671 36.6217Z" fill="#045F87"/>
<path fill-rule="evenodd" clip-rule="evenodd" d="M10.7671 32.0484V29.3583C10.7671 29.0893 10.9496 28.8203 11.1321 28.8203H13.0482C13.2307 28.8203 13.4132 28.9996 13.4132 29.3583V32.0484C13.4132 32.3175 13.2307 32.5865 13.0482 32.5865H11.1321C10.9496 32.5865 10.7671 32.3175 10.7671 32.0484Z" fill="#27AAE1"/>
<path fill-rule="evenodd" clip-rule="evenodd" d="M10.7671 27.4752V24.7851C10.7671 24.5161 10.9496 24.2471 11.1321 24.2471H13.0482C13.2307 24.2471 13.4132 24.4264 13.4132 24.7851V27.4752C13.4132 27.7442 13.2307 28.0132 13.0482 28.0132H11.1321C10.9496 28.0132 10.7671 27.7442 10.7671 27.4752Z" fill="#045F87"/>
<path fill-rule="evenodd" clip-rule="evenodd" d="M3.6499 22.9921V20.3019C3.6499 20.0329 3.83239 19.7639 4.01488 19.7639H5.93105C6.11354 19.7639 6.29603 19.9433 6.29603 20.3019V22.9921C6.29603 23.2611 6.11354 23.5301 5.93105 23.5301H4.01488C3.83239 23.5301 3.6499 23.2611 3.6499 22.9921Z" fill="#27AAE1"/>
<path fill-rule="evenodd" clip-rule="evenodd" d="M7.20898 22.9921V20.3019C7.20898 20.0329 7.39148 19.7639 7.57398 19.7639H9.49013C9.67262 19.7639 9.85512 19.9433 9.85512 20.3019V22.9921C9.85512 23.2611 9.67262 23.5301 9.49013 23.5301H7.57398C7.39148 23.4404 7.20898 23.2611 7.20898 22.9921Z" fill="#27AAE1"/>
<path fill-rule="evenodd" clip-rule="evenodd" d="M10.7671 22.9921V20.3019C10.7671 20.0329 10.9496 19.7639 11.1321 19.7639H13.0482C13.2307 19.7639 13.4132 19.9433 13.4132 20.3019V22.9921C13.4132 23.2611 13.2307 23.5301 13.0482 23.5301H11.1321C10.9496 23.4404 10.7671 23.2611 10.7671 22.9921Z" fill="#27AAE1"/>
<path fill-rule="evenodd" clip-rule="evenodd" d="M14.3257 32.0484V29.3583C14.3257 29.0893 14.5082 28.8203 14.6907 28.8203H16.6068C16.7893 28.8203 16.9718 28.9996 16.9718 29.3583V32.0484C16.9718 32.3175 16.7893 32.5865 16.6068 32.5865H14.6907C14.5082 32.5865 14.3257 32.3175 14.3257 32.0484Z" fill="#045F87"/>
<path fill-rule="evenodd" clip-rule="evenodd" d="M14.3257 27.4752V24.7851C14.3257 24.5161 14.5082 24.2471 14.6907 24.2471H16.6068C16.7893 24.2471 16.9718 24.4264 16.9718 24.7851V27.4752C16.9718 27.7442 16.7893 28.0132 16.6068 28.0132H14.6907C14.5082 28.0132 14.3257 27.7442 14.3257 27.4752Z" fill="#27AAE1"/>
<path fill-rule="evenodd" clip-rule="evenodd" d="M14.3257 22.902V20.2119C14.3257 19.9428 14.5082 19.6738 14.6907 19.6738H16.6068C16.7893 19.6738 16.9718 19.8532 16.9718 20.2119V22.902C16.9718 23.171 16.7893 23.44 16.6068 23.44H14.6907C14.5082 23.44 14.3257 23.171 14.3257 22.902Z" fill="#045F87"/>
<path d="M15.4616 30.8715L11.4556 35.0471L11.8539 35.4162L15.8599 31.2405L15.4616 30.8715Z" fill="#045F87"/>
<path d="M15.2259 21.999L11.3979 26.333L11.8114 26.6857L15.6393 22.3516L15.2259 21.999Z" fill="#045F87"/>
<path d="M30.4761 25.0547C30.1111 25.234 29.1074 25.503 27.9212 25.503C24.5451 25.503 22.7202 23.4406 22.7202 20.6608C22.7202 17.343 25.0926 15.5496 28.1037 15.5496C29.2899 15.5496 30.1111 15.8186 30.5674 15.9979L30.1111 17.7017C29.6549 17.5223 29.0162 17.343 28.2862 17.343C26.5525 17.343 25.1839 18.419 25.1839 20.5711C25.1839 22.5439 26.3701 23.7096 28.3775 23.7096C29.0162 23.7096 29.8374 23.5303 30.2024 23.3509L30.4761 25.0547Z" fill="#27AAE1"/>
<path d="M31.936 15.6394H34.1259V23.4408H38.0495V25.2342H31.936V15.6394Z" fill="#27AAE1"/>
<path d="M47.9036 20.3919C47.9036 23.5303 45.9875 25.5031 43.0676 25.5031C40.1477 25.5031 38.4141 23.351 38.4141 20.5712C38.4141 17.7017 40.3302 15.46 43.2501 15.46C46.2612 15.5496 47.9036 17.7017 47.9036 20.3919ZM40.7865 20.5712C40.7865 22.4543 41.6989 23.7994 43.1588 23.7994C44.6188 23.7994 45.5312 22.3646 45.5312 20.4815C45.5312 18.7778 44.71 17.2534 43.1588 17.2534C41.6077 17.2534 40.7865 18.6881 40.7865 20.5712Z" fill="#27AAE1"/>
<path d="M51.5537 15.6394V21.199C51.5537 22.9028 52.1924 23.7098 53.3786 23.7098C54.5648 23.7098 55.2035 22.9028 55.2035 21.199V15.6394H57.3934V21.1093C57.3934 24.0685 55.8422 25.5032 53.2873 25.5032C50.8237 25.5032 49.3638 24.1581 49.3638 21.1093V15.7291H51.5537V15.6394Z" fill="#27AAE1"/>
<path d="M59.31 15.8188C60.1312 15.7291 61.2262 15.6394 62.3211 15.6394C64.146 15.6394 65.4235 15.9981 66.3359 16.7155C67.3396 17.4328 67.9784 18.6882 67.9784 20.392C67.9784 22.275 67.2484 23.5305 66.3359 24.3375C65.3322 25.1445 63.6898 25.5929 61.7736 25.5929C60.5875 25.5929 59.7662 25.5032 59.2188 25.4135V15.8188H59.31ZM61.4999 23.7098C61.6824 23.7098 61.9561 23.7098 62.2299 23.7098C64.2373 23.7098 65.5147 22.6337 65.5147 20.3023C65.5147 18.3295 64.3285 17.2535 62.4124 17.2535C61.9561 17.2535 61.5911 17.2535 61.4086 17.3431V23.7098H61.4999Z" fill="#27AAE1"/>
<path d="M0.760254 9V2.60156H1.771V9H0.760254ZM3.17725 9V4.22314H4.07812L4.11328 4.83398H4.13525C4.31396 4.61133 4.53223 4.43994 4.79004 4.31982C5.04785 4.19678 5.3335 4.13525 5.64697 4.13525C6.15674 4.13525 6.5625 4.27881 6.86426 4.56592C7.16895 4.8501 7.32129 5.33057 7.32129 6.00732V9H6.34131V5.99414C6.34131 5.61328 6.25488 5.34082 6.08203 5.17676C5.90918 5.0127 5.66602 4.93066 5.35254 4.93066C5.08301 4.93066 4.8457 5.00244 4.64062 5.146C4.43555 5.28955 4.27295 5.47412 4.15283 5.69971V9H3.17725ZM10.5161 7.59814C10.5161 7.10596 10.7212 6.7251 11.1313 6.45557C11.5415 6.18311 12.0615 6.04688 12.6914 6.04688H13.7812V5.68213C13.7812 5.43018 13.7065 5.2251 13.5571 5.06689C13.4077 4.90869 13.1499 4.82959 12.7837 4.82959C12.4204 4.82959 12.1597 4.90137 12.0015 5.04492C11.8462 5.18555 11.7686 5.34961 11.7686 5.53711V5.56348H10.793V5.53711C10.793 5.14746 10.9746 4.80908 11.3379 4.52197C11.7041 4.23486 12.1948 4.09131 12.8101 4.09131C13.4282 4.09131 13.9072 4.22461 14.2471 4.49121C14.5898 4.75781 14.7612 5.15479 14.7612 5.68213V7.94531C14.7612 8.13574 14.7759 8.31592 14.8052 8.48584C14.8374 8.65283 14.8799 8.80078 14.9326 8.92969V9H13.9834C13.9395 8.92383 13.8999 8.82568 13.8647 8.70557C13.8325 8.58545 13.812 8.4668 13.8032 8.34961C13.689 8.54297 13.5 8.71436 13.2363 8.86377C12.9727 9.01318 12.6357 9.08789 12.2256 9.08789C11.751 9.08789 11.3467 8.96045 11.0127 8.70557C10.6816 8.44775 10.5161 8.07861 10.5161 7.59814ZM11.4961 7.5498C11.4961 7.79883 11.5737 7.99512 11.729 8.13867C11.8843 8.2793 12.1274 8.34961 12.4585 8.34961C12.7954 8.34961 13.1001 8.24268 13.3726 8.02881C13.645 7.81201 13.7812 7.5835 13.7812 7.34326V6.71045H12.7837C12.3618 6.71045 12.041 6.78662 11.8213 6.93896C11.6045 7.08838 11.4961 7.29199 11.4961 7.5498ZM15.7632 7.57178H16.7388V7.60693C16.7388 7.86475 16.8398 8.06104 17.042 8.1958C17.2471 8.32764 17.5166 8.39355 17.8506 8.39355C18.1875 8.39355 18.4482 8.33203 18.6328 8.20898C18.8203 8.08301 18.9141 7.91895 18.9141 7.7168C18.9141 7.51465 18.8379 7.36084 18.6855 7.25537C18.5361 7.14697 18.1816 7.03857 17.6221 6.93018C17.0596 6.82178 16.6333 6.65186 16.3433 6.42041C16.0562 6.18896 15.9126 5.87695 15.9126 5.48438C15.9126 5.08301 16.0854 4.75049 16.4312 4.48682C16.7769 4.22314 17.2441 4.09131 17.833 4.09131C18.4277 4.09131 18.9009 4.22607 19.2524 4.49561C19.6069 4.76514 19.7842 5.12109 19.7842 5.56348V5.59424H18.813V5.56348C18.813 5.33496 18.7324 5.15479 18.5713 5.02295C18.4131 4.89111 18.167 4.8252 17.833 4.8252C17.499 4.8252 17.2573 4.88379 17.1079 5.00098C16.9614 5.11523 16.8882 5.25586 16.8882 5.42285C16.8882 5.59863 16.9644 5.73926 17.1167 5.84473C17.272 5.94727 17.6353 6.0542 18.2065 6.16553C18.7661 6.27393 19.1865 6.44531 19.4678 6.67969C19.752 6.91406 19.894 7.24072 19.894 7.65967C19.894 8.09033 19.7227 8.44336 19.3799 8.71875C19.04 8.99414 18.5303 9.13184 17.8506 9.13184C17.1709 9.13184 16.6523 8.99268 16.2949 8.71436C15.9404 8.43604 15.7632 8.06689 15.7632 7.60693V7.57178ZM20.5972 7.57178H21.5728V7.60693C21.5728 7.86475 21.6738 8.06104 21.876 8.1958C22.0811 8.32764 22.3506 8.39355 22.6846 8.39355C23.0215 8.39355 23.2822 8.33203 23.4668 8.20898C23.6543 8.08301 23.748 7.91895 23.748 7.7168C23.748 7.51465 23.6719 7.36084 23.5195 7.25537C23.3701 7.14697 23.0156 7.03857 22.4561 6.93018C21.8936 6.82178 21.4673 6.65186 21.1772 6.42041C20.8901 6.18896 20.7466 5.87695 20.7466 5.48438C20.7466 5.08301 20.9194 4.75049 21.2651 4.48682C21.6108 4.22314 22.0781 4.09131 22.667 4.09131C23.2617 4.09131 23.7349 4.22607 24.0864 4.49561C24.4409 4.76514 24.6182 5.12109 24.6182 5.56348V5.59424H23.647V5.56348C23.647 5.33496 23.5664 5.15479 23.4053 5.02295C23.2471 4.89111 23.001 4.8252 22.667 4.8252C22.333 4.8252 22.0913 4.88379 21.9419 5.00098C21.7954 5.11523 21.7222 5.25586 21.7222 5.42285C21.7222 5.59863 21.7983 5.73926 21.9507 5.84473C22.106 5.94727 22.4692 6.0542 23.0405 6.16553C23.6001 6.27393 24.0205 6.44531 24.3018 6.67969C24.5859 6.91406 24.728 7.24072 24.728 7.65967C24.728 8.09033 24.5566 8.44336 24.2139 8.71875C23.874 8.99414 23.3643 9.13184 22.6846 9.13184C22.0049 9.13184 21.4863 8.99268 21.1289 8.71436C20.7744 8.43604 20.5972 8.06689 20.5972 7.60693V7.57178ZM25.4531 6.67969V6.53906C25.4531 5.81836 25.6699 5.23096 26.1035 4.77686C26.54 4.31982 27.1201 4.09131 27.8438 4.09131C28.5703 4.09131 29.1504 4.31982 29.584 4.77686C30.0205 5.23096 30.2388 5.81836 30.2388 6.53906V6.67969C30.2388 7.40332 30.0205 7.99365 29.584 8.45068C29.1504 8.90479 28.5718 9.13184 27.8481 9.13184C27.1216 9.13184 26.54 8.90479 26.1035 8.45068C25.6699 7.99365 25.4531 7.40332 25.4531 6.67969ZM26.4551 6.53467V6.68408C26.4551 7.15576 26.5723 7.55273 26.8066 7.875C27.041 8.19434 27.3867 8.354 27.8438 8.354C28.3037 8.354 28.6509 8.19434 28.8853 7.875C29.1196 7.55273 29.2368 7.15576 29.2368 6.68408V6.53467C29.2368 6.06592 29.1196 5.67188 28.8853 5.35254C28.6509 5.0332 28.3037 4.87354 27.8438 4.87354C27.3867 4.87354 27.041 5.0332 26.8066 5.35254C26.5723 5.67188 26.4551 6.06592 26.4551 6.53467ZM30.9814 6.67969V6.53906C30.9814 5.81836 31.1909 5.23096 31.6099 4.77686C32.0288 4.31982 32.603 4.09131 33.3325 4.09131C34.0122 4.09131 34.5278 4.26416 34.8794 4.60986C35.2339 4.95264 35.4126 5.33789 35.4155 5.76562V5.79199H34.4575V5.77002C34.4575 5.52979 34.3682 5.31885 34.1895 5.13721C34.0107 4.95557 33.7236 4.86475 33.3281 4.86475C32.8682 4.86475 32.5283 5.02588 32.3086 5.34814C32.0918 5.67041 31.9834 6.06592 31.9834 6.53467V6.68848C31.9834 7.15723 32.0918 7.5542 32.3086 7.87939C32.5283 8.20166 32.8682 8.36279 33.3281 8.36279C33.7236 8.36279 34.0107 8.27197 34.1895 8.09033C34.3682 7.90576 34.4575 7.69336 34.4575 7.45312V7.43115H35.4155V7.45752C35.4155 7.88525 35.2383 8.27197 34.8838 8.61768C34.5293 8.96045 34.0122 9.13184 33.3325 9.13184C32.603 9.13184 32.0288 8.90479 31.6099 8.45068C31.1909 7.99365 30.9814 7.40332 30.9814 6.67969ZM36.4175 9V4.22314H37.3975V9H36.4175ZM36.3252 2.88721C36.3252 2.73193 36.375 2.60303 36.4746 2.50049C36.5771 2.39502 36.7207 2.34229 36.9053 2.34229C37.0928 2.34229 37.2363 2.39502 37.3359 2.50049C37.4355 2.60303 37.4854 2.73193 37.4854 2.88721C37.4854 3.04248 37.4355 3.17285 37.3359 3.27832C37.2363 3.38086 37.0928 3.43213 36.9053 3.43213C36.7207 3.43213 36.5771 3.38086 36.4746 3.27832C36.375 3.17285 36.3252 3.04248 36.3252 2.88721ZM38.4741 7.59814C38.4741 7.10596 38.6792 6.7251 39.0894 6.45557C39.4995 6.18311 40.0195 6.04688 40.6494 6.04688H41.7393V5.68213C41.7393 5.43018 41.6646 5.2251 41.5151 5.06689C41.3657 4.90869 41.1079 4.82959 40.7417 4.82959C40.3784 4.82959 40.1177 4.90137 39.9595 5.04492C39.8042 5.18555 39.7266 5.34961 39.7266 5.53711V5.56348H38.751V5.53711C38.751 5.14746 38.9326 4.80908 39.2959 4.52197C39.6621 4.23486 40.1528 4.09131 40.7681 4.09131C41.3862 4.09131 41.8652 4.22461 42.2051 4.49121C42.5479 4.75781 42.7192 5.15479 42.7192 5.68213V7.94531C42.7192 8.13574 42.7339 8.31592 42.7632 8.48584C42.7954 8.65283 42.8379 8.80078 42.8906 8.92969V9H41.9414C41.8975 8.92383 41.8579 8.82568 41.8228 8.70557C41.7905 8.58545 41.77 8.4668 41.7612 8.34961C41.647 8.54297 41.458 8.71436 41.1943 8.86377C40.9307 9.01318 40.5938 9.08789 40.1836 9.08789C39.709 9.08789 39.3047 8.96045 38.9707 8.70557C38.6396 8.44775 38.4741 8.07861 38.4741 7.59814ZM39.4541 7.5498C39.4541 7.79883 39.5317 7.99512 39.687 8.13867C39.8423 8.2793 40.0854 8.34961 40.4165 8.34961C40.7534 8.34961 41.0581 8.24268 41.3306 8.02881C41.603 7.81201 41.7393 7.5835 41.7393 7.34326V6.71045H40.7417C40.3198 6.71045 39.999 6.78662 39.7793 6.93896C39.5625 7.08838 39.4541 7.29199 39.4541 7.5498ZM43.374 4.96143V4.22314H46.2349V4.96143H43.374ZM44.2222 7.76514V4.65381L44.2266 4.52197V3.23438H45.2021V7.76514C45.2021 7.97021 45.2446 8.1167 45.3296 8.20459C45.4146 8.28955 45.5449 8.33203 45.7207 8.33203C45.8057 8.33203 45.8877 8.32324 45.9668 8.30566C46.0488 8.28809 46.1309 8.26465 46.2129 8.23535V9C46.1338 9.03516 46.0312 9.06592 45.9053 9.09229C45.7793 9.11865 45.6431 9.13184 45.4966 9.13184C45.1099 9.13184 44.8008 9.02197 44.5693 8.80225C44.3379 8.58252 44.2222 8.23682 44.2222 7.76514ZM47.1313 9V4.22314H48.1113V9H47.1313ZM47.0391 2.88721C47.0391 2.73193 47.0889 2.60303 47.1885 2.50049C47.291 2.39502 47.4346 2.34229 47.6191 2.34229C47.8066 2.34229 47.9502 2.39502 48.0498 2.50049C48.1494 2.60303 48.1992 2.73193 48.1992 2.88721C48.1992 3.04248 48.1494 3.17285 48.0498 3.27832C47.9502 3.38086 47.8066 3.43213 47.6191 3.43213C47.4346 3.43213 47.291 3.38086 47.1885 3.27832C47.0889 3.17285 47.0391 3.04248 47.0391 2.88721ZM49.166 6.67969V6.53906C49.166 5.81836 49.3828 5.23096 49.8164 4.77686C50.2529 4.31982 50.833 4.09131 51.5566 4.09131C52.2832 4.09131 52.8633 4.31982 53.2969 4.77686C53.7334 5.23096 53.9517 5.81836 53.9517 6.53906V6.67969C53.9517 7.40332 53.7334 7.99365 53.2969 8.45068C52.8633 8.90479 52.2847 9.13184 51.561 9.13184C50.8345 9.13184 50.2529 8.90479 49.8164 8.45068C49.3828 7.99365 49.166 7.40332 49.166 6.67969ZM50.168 6.53467V6.68408C50.168 7.15576 50.2852 7.55273 50.5195 7.875C50.7539 8.19434 51.0996 8.354 51.5566 8.354C52.0166 8.354 52.3638 8.19434 52.5981 7.875C52.8325 7.55273 52.9497 7.15576 52.9497 6.68408V6.53467C52.9497 6.06592 52.8325 5.67188 52.5981 5.35254C52.3638 5.0332 52.0166 4.87354 51.5566 4.87354C51.0996 4.87354 50.7539 5.0332 50.5195 5.35254C50.2852 5.67188 50.168 6.06592 50.168 6.53467ZM54.9712 9V4.22314H55.8721L55.9072 4.83398H55.9292C56.1079 4.61133 56.3262 4.43994 56.584 4.31982C56.8418 4.19678 57.1274 4.13525 57.4409 4.13525C57.9507 4.13525 58.3564 4.27881 58.6582 4.56592C58.9629 4.8501 59.1152 5.33057 59.1152 6.00732V9H58.1353V5.99414C58.1353 5.61328 58.0488 5.34082 57.876 5.17676C57.7031 5.0127 57.46 4.93066 57.1465 4.93066C56.877 4.93066 56.6396 5.00244 56.4346 5.146C56.2295 5.28955 56.0669 5.47412 55.9468 5.69971V9H54.9712ZM62.0244 4.22314H63.0044L63.8306 7.21582C63.8628 7.33301 63.8936 7.44873 63.9229 7.56299C63.9521 7.67432 63.9741 7.78711 63.9888 7.90137H64.0151C64.0327 7.78711 64.0547 7.67432 64.0811 7.56299C64.1104 7.44873 64.144 7.33301 64.1821 7.21582L65.1665 4.22314H66.0894L67.0825 7.21582C67.1206 7.33301 67.1528 7.44873 67.1792 7.56299C67.2085 7.67432 67.2319 7.78857 67.2495 7.90576H67.2759C67.2935 7.78857 67.3154 7.67432 67.3418 7.56299C67.3711 7.44873 67.4033 7.33301 67.4385 7.21582L68.2603 4.22314H69.1392L67.6846 9H66.8013L65.8081 5.9458C65.7671 5.82861 65.729 5.71289 65.6938 5.59863C65.6616 5.48145 65.6309 5.36572 65.6016 5.25146H65.5752C65.5459 5.36865 65.5137 5.48438 65.4785 5.59863C65.4434 5.71289 65.4067 5.82861 65.3687 5.9458L64.3755 9H63.479L62.0244 4.22314ZM69.9302 9V4.22314H70.9102V9H69.9302ZM69.8379 2.88721C69.8379 2.73193 69.8877 2.60303 69.9873 2.50049C70.0898 2.39502 70.2334 2.34229 70.418 2.34229C70.6055 2.34229 70.749 2.39502 70.8486 2.50049C70.9482 2.60303 70.998 2.73193 70.998 2.88721C70.998 3.04248 70.9482 3.17285 70.8486 3.27832C70.749 3.38086 70.6055 3.43213 70.418 3.43213C70.2334 3.43213 70.0898 3.38086 69.9873 3.27832C69.8877 3.17285 69.8379 3.04248 69.8379 2.88721ZM71.5957 4.96143V4.22314H74.4565V4.96143H71.5957ZM72.4438 7.76514V4.65381L72.4482 4.52197V3.23438H73.4238V7.76514C73.4238 7.97021 73.4663 8.1167 73.5513 8.20459C73.6362 8.28955 73.7666 8.33203 73.9424 8.33203C74.0273 8.33203 74.1094 8.32324 74.1885 8.30566C74.2705 8.28809 74.3525 8.26465 74.4346 8.23535V9C74.3555 9.03516 74.2529 9.06592 74.127 9.09229C74.001 9.11865 73.8647 9.13184 73.7183 9.13184C73.3315 9.13184 73.0225 9.02197 72.791 8.80225C72.5596 8.58252 72.4438 8.23682 72.4438 7.76514ZM75.3179 9V2.25H76.2935V4.82959C76.4692 4.61279 76.6846 4.44287 76.9395 4.31982C77.1943 4.19678 77.4814 4.13525 77.8008 4.13525C78.3047 4.13525 78.7075 4.27881 79.0093 4.56592C79.311 4.8501 79.4619 5.3291 79.4619 6.00293V9H78.4775V5.99854C78.4775 5.61475 78.3911 5.34082 78.2183 5.17676C78.0483 5.0127 77.8052 4.93066 77.4888 4.93066C77.2192 4.93066 76.9819 5.00244 76.7769 5.146C76.5747 5.28955 76.4136 5.47559 76.2935 5.7041V9H75.3179Z" fill="#4E5054"/>
</svg>
